<svg width="149" height="132" viewBox="0 0 149 132" fill="none" xmlns="http://www.w3.org/2000/svg">
<path d="M10.2235 48.9635C10.2235 48.2547 10.8165 48.1616 11.1943 47.6893C11.5717 47.2175 12.3655 47.3177 12.8326 46.9545C13.7764 46.2204 15.0393 45.7349 15.8057 44.7769C16.1209 44.3829 16.804 43.9869 17.2013 43.6779C17.8315 43.1878 18.452 42.5553 19.0216 41.9857C19.8815 41.1258 20.9429 40.3363 21.934 39.5654C23.0859 38.6695 24.1566 37.513 25.3386 36.7608C26.0232 36.3252 26.6496 35.706 27.2803 35.19C27.9125 34.6727 28.6468 34.1808 29.2152 33.6124C30.3161 32.5114 31.6268 31.6862 32.7344 30.5786C33.8978 29.4152 34.9614 28.1089 36.1323 26.938C36.7114 26.3589 37.3591 25.8325 37.9526 25.2391C38.4709 24.7208 39.1672 24.3817 39.6515 23.8435C40.8005 22.5669 42.5464 21.8453 43.7708 20.6209C44.4442 19.9475 45.042 19.2418 45.7192 18.5647C46.237 18.0468 46.8405 17.6969 47.4114 17.2298C48.1781 16.6025 48.9824 15.8867 49.5957 15.1061C49.9051 14.7123 50.4983 14.0259 50.9441 13.7712C51.9459 13.1987 52.6692 12.2444 53.5532 11.5262C54.1089 11.0747 54.6528 10.2996 55.306 10.0093C55.9205 9.7362 56.4816 9.23192 57.0657 8.85643C57.6099 8.50657 58.2325 7.6389 58.832 7.46762C59.0633 7.40154 59.2285 7.19329 59.4455 7.09682C59.6673 6.99826 60.2096 6.83783 60.3422 6.67208C60.8368 6.05376 61.7899 5.71272 62.4659 5.3372C63.5605 4.72908 64.7776 4.33975 65.9244 3.76636C66.4655 3.49583 67.0513 3.43695 67.5627 3.15285C68.0584 2.87744 69.0575 2.60676 69.6257 2.60676C70.2957 2.60676 70.9175 2.48541 71.5673 2.48541C72.1489 2.48541 72.9918 2.5907 73.509 2.30338C73.7786 2.15356 74.3625 2.16635 74.6685 2.12809C75.181 2.06404 75.6584 2 76.1787 2C76.8259 2 77.4731 2 78.1204 2C79.7406 2 81.3609 2 82.9812 2C85.761 2 88.3729 2.76906 90.9298 3.88771C92.6435 4.63744 94.2716 5.55156 95.8311 6.54399C96.1266 6.732 96.3985 7.04804 96.6806 7.27885C97.0214 7.55769 97.4436 7.72948 97.7795 8.01371C98.7109 8.8018 99.8395 9.44453 100.874 10.0767C102.296 10.9456 103.378 12.4358 104.697 13.4611C105.442 14.0408 106.392 14.5564 107.063 15.2275C107.401 15.565 107.786 15.9621 108.155 16.2522C108.558 16.5687 108.833 17.0846 109.247 17.3511C110.188 17.956 110.882 18.9921 111.735 19.7108C112.78 20.5905 113.687 21.6085 114.654 22.576C115.463 23.3843 116.216 24.2452 117.021 25.0503C117.94 25.9692 119.212 26.6996 119.987 27.7335C120.45 28.3513 121.124 29.1253 121.747 29.6145C122.324 30.0679 122.802 30.9647 123.257 31.5494C124.419 33.0434 125.082 34.9117 126.297 36.3968C126.865 37.0909 127.166 37.8043 127.632 38.5811C128.029 39.2416 128.595 39.8295 128.907 40.5295C129.561 42.002 130.423 43.3797 131.152 44.8375C132.498 47.5298 134.009 50.1098 134.88 52.9412C135.047 53.4848 135.338 53.9856 135.338 54.5458C135.338 55.193 135.338 55.8402 135.338 56.4874C135.338 57.8667 134.571 58.5751 133.976 59.7639C132.782 62.1532 130.953 63.9857 128.421 65.2518C127.709 65.6079 126.896 65.666 126.142 65.926C125.597 66.114 125.065 66.1741 124.538 66.4114C124.344 66.4985 123.905 66.669 123.688 66.681C122.843 66.728 121.86 67.2982 121.086 67.6519C120.178 68.0668 119.23 68.3174 118.281 68.5283C117.277 68.7515 116.202 68.9005 115.221 69.2025C114.142 69.5342 112.84 69.9081 111.701 69.9576C110.613 70.0049 109.456 70.2954 108.398 70.5374C107.708 70.695 107.085 70.7611 106.429 70.9554C105.328 71.2816 104.127 71.3195 103.004 71.5621C101.877 71.8059 100.709 71.9118 99.5661 72.1149C98.255 72.348 96.8318 72.3453 95.5615 72.7217C95.1612 72.8403 94.6174 72.7487 94.1996 72.7487C93.629 72.7487 93.0877 72.8626 92.5276 72.9644C91.8888 73.0806 91.1559 72.9615 90.5321 73.1397C90.3357 73.1958 89.7571 73.1475 89.6152 73.2611C89.2642 73.5418 88.342 73.6943 87.8893 73.7195C87.6118 73.7349 87.4622 73.9622 87.1611 73.9622C86.8818 73.9622 86.4946 74.0855 86.2173 74.1779C85.2922 74.4863 84.2239 74.4212 83.3453 74.8117C82.6649 75.1141 81.3863 75.2682 80.6351 75.2971C79.8153 75.3286 79.0145 75.4959 78.181 75.5398C76.518 75.6273 74.7866 76.0252 73.1112 76.0252C70.7506 76.0252 68.4081 76.632 66.0458 76.632C64.7642 76.632 63.4652 76.7533 62.1625 76.7533C58.3837 76.7533 54.6333 76.5106 50.8497 76.5106C45.8774 76.5106 40.8818 76.4061 35.9503 76.1466C35.08 76.1007 34.1284 75.8472 33.2535 75.6881C32.3605 75.5257 31.4919 75.2771 30.6107 75.0813C29.3351 74.7979 27.9479 74.9179 26.7005 74.5959C26.3344 74.5015 25.9476 74.6236 25.5813 74.5015C25.2164 74.3799 24.9626 74.335 24.5701 74.3263C24.0941 74.3157 23.6198 74.1109 23.1543 74.0836C22.1851 74.0265 21.0441 73.7027 20.1474 73.3824C19.0955 73.0067 17.921 72.8677 16.8979 72.3846C16.4676 72.1814 15.9236 72.0347 15.4686 71.8722C14.9858 71.6998 14.4606 71.4984 13.9584 71.3868C12.7097 71.1093 11.3338 70.6195 10.1291 70.1733C8.42707 69.5429 6.89889 68.7928 5.39633 67.7732C4.98713 67.4955 4.66241 67.0878 4.25022 66.8024C4.0406 66.6573 3.56975 66.3044 3.45468 66.0743C3.1566 65.4781 2.81228 64.8807 2.45689 64.2809C2.02526 63.5526 2.09284 62.9098 2.09284 62.0696C2.09284 61.4231 1.867 60.243 2.1198 59.6426C2.29591 59.2243 2.26727 58.7192 2.48386 58.3077C2.69674 57.9032 2.9319 57.516 3.13108 57.0942C3.5073 56.2975 3.90322 55.3181 4.66821 54.7885C5.43486 54.2577 5.82061 53.813 6.34018 53.0626C6.62489 52.6513 6.93944 52.1936 7.28404 51.849C7.51926 51.6138 7.82935 51.3936 8.03912 51.1209C8.30297 50.7779 8.6998 50.5913 9.00995 50.2984C9.155 50.1614 9.40531 49.7041 9.61671 49.6916C9.84004 49.6785 10.1602 49.3632 10.3448 49.2062C10.6197 48.9726 10.9569 48.705 11.0729 48.3568" stroke="#131313" stroke-width="4" stroke-linecap="round"/>
<path d="M41.0471 77.8455C41.0471 81.368 41.0471 84.9522 41.0471 88.4639C41.0471 89.3098 40.8044 90.1119 40.8044 90.9786C40.8044 92.139 40.683 93.295 40.683 94.4709C40.683 96.5305 40.609 98.5845 40.919 100.599C41.0484 101.44 41.0471 102.353 41.0471 103.208C41.0471 104.31 41.1684 105.392 41.1684 106.512C41.1684 108.364 41.2898 110.296 41.2898 112.182C41.2898 114.247 41.2898 116.312 41.2898 118.377C41.2898 119.131 41.2572 119.899 41.4179 120.622C41.5183 121.074 41.6387 121.53 41.8359 121.964C41.981 122.283 41.9959 122.778 42.2067 123.049C42.704 123.689 42.7006 124.595 43.4741 125.079C44.0076 125.412 44.6169 126.311 45.2944 126.387C45.6595 126.427 45.9616 126.777 46.3192 126.879C46.6578 126.976 47.235 127.348 47.5462 127.546C47.9159 127.782 48.6212 127.964 49.0564 127.964C49.5864 127.964 50.0699 128.229 50.58 128.322C55.5697 129.229 60.7169 128.935 65.803 128.935C68.6469 128.935 71.4705 129.103 74.2977 129.178C76.7956 129.244 79.3093 129.299 81.8216 129.299C87.2432 129.299 92.74 129.299 98.1503 129.299C100.839 129.299 103.556 129.542 106.274 129.542C108.438 129.542 110.602 129.542 112.767 129.542C115.954 129.542 119.119 129.42 122.293 129.42C124.863 129.42 127.426 129.663 129.972 129.663C131.854 129.663 133.711 129.906 135.588 129.906C136.264 129.906 136.941 129.906 137.617 129.906C137.848 129.906 138.529 130.023 138.709 129.879C139 129.646 139.46 129.583 139.828 129.542C140.249 129.495 140.73 129.224 141.136 129.083C145.174 127.686 146.139 123.436 146.139 119.618C146.139 118.587 145.709 117.829 145.41 116.86C145.087 115.811 144.679 114.915 144.022 114.069C143.738 113.704 143.484 113.127 143.321 112.701C143.198 112.382 142.782 112.054 142.741 111.703C142.71 111.439 142.439 111.255 142.377 110.975C142.285 110.562 142.068 110.145 141.891 109.761C141.636 109.206 141.477 108.604 141.19 108.062C140.68 107.099 140.435 105.95 139.889 104.968C139.457 104.191 138.87 103.389 138.493 102.541C138.276 102.052 137.942 101.791 137.644 101.361C137.217 100.744 136.844 100.094 136.43 99.4733C135.906 98.687 135.631 97.8552 135.311 96.9923C134.954 96.0265 134.564 94.963 134.071 94.0461C133.254 92.53 132.829 90.8306 132.122 89.2595C131.6 88.099 131.232 86.8264 130.821 85.6391C130.595 84.9852 130.448 84.29 130.12 83.6705C129.844 83.1489 129.47 82.5574 129.298 81.9985C128.929 80.8006 128.501 79.5321 128.05 78.331C127.601 77.1332 127.302 75.8686 126.79 74.6971C126.634 74.3413 126.465 73.9721 126.358 73.5982C126.229 73.145 125.899 72.6895 125.724 72.2364C125.563 71.816 125.432 71.3369 125.239 70.9284C125.019 70.4637 124.541 70.1935 124.295 69.7149C123.8 68.7526 123.809 67.6511 123.324 66.6811" stroke="#131313" stroke-width="4" stroke-linecap="round"/>
<path d="M69.0795 88.0391C68.8586 88.0667 68.5479 89.7336 68.4794 90.0415C68.3452 90.6457 68.1086 91.1943 68.1086 91.8618C68.1086 92.8141 68.5428 93.359 69.2615 93.918C69.5798 94.1656 69.946 94.4825 70.293 94.6866C70.4685 94.7898 71.0488 95.2239 71.1425 95.3877C71.4299 95.8908 72.3126 96.3344 72.7807 96.5945C73.524 97.0074 74.0684 96.8537 74.8437 97.026C75.4034 97.1504 76.7293 97.3808 77.2708 97.0799C77.8278 96.7705 78.1185 96.3454 78.491 95.8664C78.8816 95.3643 78.909 94.5517 78.909 93.9247C78.909 92.9908 78.6115 92.7434 78.1809 91.9898C77.8794 91.4622 77.3956 91.0081 77.0213 90.5269C76.6107 89.9989 76.0494 89.4611 75.4572 89.1381C74.8071 88.7835 74.3437 88.113 73.6369 87.911C72.9863 87.7251 72.405 87.4324 71.6885 87.4324C70.2583 87.4324 69.4792 88.5156 69.1941 89.7988C69.0415 90.4854 69.0795 91.2025 69.0795 91.9224C69.0795 92.7819 69.4546 93.025 69.8345 93.7427C69.9751 94.0081 70.2651 94.3081 70.4818 94.5248C70.7103 94.7533 70.8156 95.0609 71.0481 95.2933C71.2309 95.4761 71.2273 95.7523 71.4458 95.9271C71.6496 96.09 71.8368 96.2266 72.0459 96.4125C72.5461 96.8571 73.4349 96.868 73.9875 97.1136C74.7779 97.4649 75.5363 96.7276 76.1179 96.3855C76.4548 96.1873 76.4215 95.5628 76.6573 95.2596C76.8339 95.0326 76.9517 94.39 76.9674 94.1068C77.0245 93.0794 76.0317 92.7009 75.6055 91.9764C75.4166 91.6552 74.9564 91.3219 74.7156 91.0123C74.5298 90.7734 73.9984 90.2416 73.6909 90.2235C73.1771 90.1933 72.2068 89.8675 72.1133 90.7089C71.987 91.8455 71.9868 92.7193 73.2055 93.3112C73.8363 93.6177 74.4573 93.9135 75.1336 94.1068C75.4909 94.2089 75.4063 94.6598 75.3898 94.9562C75.3811 95.113 74.6551 95.6064 74.4797 95.6844C74.1177 95.8453 73.6044 95.9271 73.2055 95.9271C72.912 95.9271 72.5589 95.7683 72.2886 95.6911C71.9662 95.599 71.6733 95.7973 71.4121 95.536C71.0161 95.14 70.4675 95.1981 70.0773 94.8079C69.8536 94.5843 69.8438 94.4378 69.5109 94.3427C69.2271 94.2616 69.1577 93.9639 68.9581 93.8641" stroke="#131313" stroke-width="4" stroke-linecap="round"/>
<path d="M71.2639 91.073C71.3041 91.3942 71.3853 90.5905 71.3853 90.4662C71.3853 90.1416 71.37 89.89 71.5066 89.6168" stroke="#131313" stroke-width="4" stroke-linecap="round"/>
<path d="M101.723 86.7043C101.366 86.7489 101.066 87.4951 100.874 87.7358C100.641 88.0267 100.188 88.4599 99.8761 88.7403C99.2322 89.3198 99.002 91.1693 99.3907 92.0438C99.7824 92.925 100.22 94.1594 101.117 94.6866C101.684 95.0202 102.255 95.189 102.876 95.327C103.417 95.4472 104.131 95.3119 104.636 95.536C104.941 95.6715 106.12 95.6496 106.335 95.381C106.745 94.8681 107.718 94.8258 108.007 94.1337C108.198 93.6746 108.883 93.1587 108.883 92.5899C108.883 92.0804 109.059 91.166 108.856 90.7089C108.429 89.747 108.197 88.6338 107.454 87.8908C106.601 87.0376 105.496 86.4615 104.272 86.4615C103.989 86.4615 103.705 86.4615 103.422 86.4615C103.113 86.4615 103.116 86.7484 102.869 86.8189C102.4 86.9529 101.701 87.7404 101.454 88.1605C101.212 88.5712 100.752 88.9235 100.638 89.4347C100.502 90.0472 100.388 90.5465 100.388 91.1943C100.388 92.6115 102.112 93.4272 103.422 93.5C103.988 93.5314 104.875 93.6484 105.418 93.4933C106.018 93.3217 106.426 92.1007 106.604 91.5853C107.107 90.1326 105.527 88.7673 104.15 88.7673C103.869 88.7673 103.582 88.7516 103.301 88.7673C102.962 88.7861 102.77 89.2226 102.505 89.374C102.166 89.5678 101.837 90.5774 102.114 90.9246C102.597 91.5284 103.312 91.5603 103.975 91.8617C104.358 92.0357 104.771 92.0438 105.182 92.0438C105.522 92.0438 105.58 91.5587 105.701 91.3157C105.906 90.9055 106.074 89.9808 105.425 89.9808C104.844 89.9808 104.238 90.9954 104.879 91.3157" stroke="#131313" stroke-width="4" stroke-linecap="round"/>
<path d="M87.4038 117.528C87.4038 118.233 87.9747 119.459 88.6173 119.861C88.9084 120.042 89.2488 120.593 89.4668 120.865C89.6606 121.107 90.0936 121.617 90.3702 121.775C90.8062 122.024 91.1886 122.366 91.6512 122.598C91.9686 122.756 92.6398 122.978 92.8917 123.205C93.1967 123.479 93.8768 123.534 94.2535 123.602C94.7595 123.694 95.1606 124.081 95.7165 124.081C96.7617 124.081 97.5962 124.182 98.6289 123.953C99.47 123.766 100.699 123.353 101.332 122.719C101.915 122.137 102.477 121.341 102.876 120.622C103.295 119.869 103.773 119.133 104.15 118.377" stroke="#131313" stroke-width="4" stroke-linecap="round"/>
</svg>
